<svg xmlns="http://www.w3.org/2000/svg" width="25" height="25" viewBox="0 0 25 25" fill="none">
<g clip-path="url(#clip0_559_125)">
<path d="M12.959 2.91413C16.163 2.91413 16.5427 2.92614 17.8081 2.98395C18.5689 2.99281 19.3225 3.13268 20.0358 3.39741C20.5572 3.58953 21.0288 3.89636 21.4158 4.29523C21.8146 4.68216 22.1215 5.15377 22.3136 5.67523C22.5784 6.38852 22.7182 7.14208 22.727 7.90286C22.7849 9.16832 22.7969 9.54795 22.7969 12.752C22.7969 15.956 22.7849 16.3356 22.727 17.601C22.7182 18.3618 22.5784 19.1154 22.3136 19.8287C22.1138 20.3463 21.8081 20.8164 21.4158 21.2087C21.0235 21.601 20.5534 21.9068 20.0358 22.1065C19.3225 22.3713 18.5689 22.5111 17.8081 22.52C16.5427 22.5778 16.163 22.5898 12.959 22.5898C9.75505 22.5898 9.37541 22.5778 8.10995 22.52C7.34918 22.5111 6.59561 22.3713 5.88232 22.1065C5.36086 21.9144 4.88925 21.6075 4.50232 21.2087C4.10345 20.8217 3.79662 20.3501 3.6045 19.8287C3.33977 19.1154 3.1999 18.3618 3.19105 17.601C3.13323 16.3356 3.12123 15.956 3.12123 12.752C3.12123 9.54795 3.13323 9.16832 3.19105 7.90286C3.1999 7.14208 3.33977 6.38852 3.6045 5.67523C3.79662 5.15377 4.10345 4.68216 4.50232 4.29523C4.88925 3.89636 5.36086 3.58953 5.88232 3.39741C6.59561 3.13268 7.34918 2.99281 8.10995 2.98395C9.37541 2.92614 9.75505 2.91413 12.959 2.91413ZM12.959 0.751953C9.7005 0.751953 9.29141 0.766135 8.01177 0.823953C7.01641 0.844523 6.03166 1.03299 5.09905 1.38141C4.3011 1.69032 3.57657 2.16271 2.972 2.76821C2.36743 3.37372 1.89618 4.09898 1.5885 4.89741C1.24008 5.83003 1.05162 6.81477 1.03105 7.81013C0.973227 9.08432 0.959045 9.49341 0.959045 12.752C0.959045 16.0105 0.973227 16.4196 1.03105 17.6992C1.05162 18.6946 1.24008 19.6793 1.5885 20.612C1.89741 21.41 2.3698 22.1344 2.97531 22.739C3.58082 23.3436 4.30607 23.8149 5.1045 24.1225C6.03712 24.4709 7.02186 24.6593 8.01723 24.68C9.29141 24.7378 9.7005 24.752 12.959 24.752C16.2176 24.752 16.6267 24.7378 17.9063 24.68C18.9017 24.6593 19.8864 24.4709 20.819 24.1225C21.617 23.8136 22.3415 23.3412 22.9461 22.7357C23.5507 22.1302 24.022 21.4049 24.3296 20.6065C24.678 19.6739 24.8664 18.6891 24.887 17.6938C24.9449 16.4196 24.959 16.0105 24.959 12.752C24.959 9.49341 24.9449 9.08432 24.887 7.80468C24.8664 6.80931 24.678 5.82457 24.3296 4.89195C24.0206 4.09401 23.5483 3.36948 22.9428 2.76491C22.3373 2.16034 21.612 1.68908 20.8136 1.38141C19.881 1.03299 18.8962 0.844523 17.9009 0.823953C16.6267 0.766135 16.2176 0.751953 12.959 0.751953Z" fill="#2D1D05"/>
<path d="M12.9586 6.58936C11.7398 6.58936 10.5483 6.95078 9.53487 7.62793C8.52144 8.30508 7.73157 9.26754 7.26514 10.3936C6.79871 11.5197 6.67667 12.7587 6.91446 13.9541C7.15224 15.1496 7.73918 16.2477 8.60102 17.1095C9.46287 17.9713 10.5609 18.5582 11.7563 18.796C12.9517 19.0338 14.1908 18.9118 15.3169 18.4453C16.443 17.9789 17.4054 17.189 18.0826 16.1757C18.7597 15.1622 19.1212 13.9707 19.1212 12.752C19.1212 11.1175 18.4718 9.55003 17.3161 8.39433C16.1604 7.23862 14.593 6.58936 12.9586 6.58936ZM12.9586 16.7523C12.1674 16.7523 11.394 16.5177 10.7361 16.0781C10.0783 15.6385 9.56552 15.0137 9.26274 14.2828C8.95997 13.5518 8.88075 12.7475 9.0351 11.9715C9.18945 11.1955 9.57045 10.4827 10.1299 9.92322C10.6894 9.36376 11.4022 8.98276 12.1782 8.8284C12.9541 8.67405 13.7585 8.75327 14.4895 9.05605C15.2204 9.35882 15.8453 9.87156 16.2848 10.5294C16.7243 11.1873 16.959 11.9607 16.959 12.752C16.959 13.8129 16.5374 14.8304 15.7872 15.5806C15.0371 16.3308 14.0195 16.7523 12.9586 16.7523Z" fill="#2D1D05"/>
<path d="M19.3646 7.78613C20.1599 7.78613 20.8046 7.14142 20.8046 6.34613C20.8046 5.55084 20.1599 4.90613 19.3646 4.90613C18.5693 4.90613 17.9246 5.55084 17.9246 6.34613C17.9246 7.14142 18.5693 7.78613 19.3646 7.78613Z" fill="#2D1D05"/>
</g>
<defs>
<clipPath id="clip0_559_125">
<rect width="24" height="24" fill="white" transform="translate(0.959045 0.751953)"/>
</clipPath>
</defs>
</svg>