<svg width="25" height="25" viewBox="0 0 25 25" fill="none" xmlns="http://www.w3.org/2000/svg">
<g id="List &#226;&#134;&#146; Item &#226;&#134;&#146; Link" clip-path="url(#clip0_559_133)">
<path id="Vector" d="M0.770874 12.7502C0.770874 17.664 3.72569 21.8854 7.95391 23.7413C7.92016 22.9034 7.94791 21.8975 8.16278 20.9858C8.3935 20.0116 9.70684 14.4469 9.70684 14.4469C9.70684 14.4469 9.3235 13.6807 9.3235 12.5483C9.3235 10.7699 10.3542 9.44175 11.6378 9.44175C12.7293 9.44175 13.2567 10.2616 13.2567 11.2433C13.2567 12.3406 12.5568 13.9819 12.1969 15.502C11.8963 16.775 12.8352 17.8132 14.091 17.8132C16.3646 17.8132 17.8959 14.893 17.8959 11.4331C17.8959 8.80303 16.1245 6.83447 12.9026 6.83447C9.26247 6.83447 6.99475 9.54909 6.99475 12.5813C6.99475 13.6268 7.303 14.3641 7.78581 14.935C8.00781 15.1973 8.03866 15.3027 7.95831 15.6038C7.90075 15.8246 7.76856 16.3562 7.71381 16.5668C7.63394 16.8708 7.38766 16.9794 7.11297 16.8672C5.43634 16.1828 4.6555 14.3467 4.6555 12.2827C4.6555 8.87381 7.53044 4.78631 13.2319 4.78631C17.8135 4.78631 20.829 8.10169 20.829 11.6605C20.829 16.368 18.2118 19.8848 14.354 19.8848C13.0585 19.8848 11.8398 19.1845 11.4224 18.3891C11.4224 18.3891 10.7257 21.1539 10.5782 21.6878C10.3237 22.6131 9.82572 23.5378 9.37037 24.2586C10.4745 24.585 11.6199 24.7508 12.7713 24.7507C19.398 24.7507 24.771 19.3779 24.771 12.7502C24.771 6.12272 19.398 0.75 12.7713 0.75C6.14406 0.75 0.770874 6.12272 0.770874 12.7502Z" fill="#2D1D05"/>
</g>
<defs>
<clipPath id="clip0_559_133">
<rect width="24" height="24" fill="white" transform="translate(0.770874 0.75)"/>
</clipPath>
</defs>
</svg>
